{
	"asset":{
		"generator":"Khronos glTF Blender I/O v4.1.63",
		"version":"2.0"
	},
	"scene":0,
	"scenes":[
		{
			"name":"Scene",
			"nodes":[
				0,
				1,
				2,
				3,
				4,
				5,
				6,
				7,
				8,
				9,
				10,
				11,
				12,
				13,
				14
			]
		}
	],
	"nodes":[
		{
			"mesh":0,
			"name":"Plane",
			"scale":[
				2.5,
				0,
				1
			],
			"translation":[
				0.36025485396385193,
				0,
				0
			]
		},
		{
			"mesh":1,
			"name":"Obj_Chair_1-1",
			"rotation":[
				0,
				-1,
				0,
				4.371138828673793e-08
			],
			"translation":[
				-1.1533174514770508,
				0.48619088530540466,
				0.5091500878334045
			]
		},
		{
			"mesh":2,
			"name":"Obj_Desk_1-1",
			"translation":[
				-1.372361421585083,
				0.018212229013442993,
				0.3305158019065857
			]
		},
		{
			"mesh":3,
			"name":"Obj_Chair_1-2",
			"rotation":[
				0,
				-1,
				0,
				4.371138828673793e-08
			],
			"translation":[
				0.13058507442474365,
				0.48619088530540466,
				0.5091500878334045
			]
		},
		{
			"mesh":4,
			"name":"Obj_Desk_1-2",
			"translation":[
				-0.08845889568328857,
				0.018212229013442993,
				0.3305158019065857
			]
		},
		{
			"mesh":5,
			"name":"Obj_Chair_1-3",
			"rotation":[
				0,
				-1,
				0,
				4.371138828673793e-08
			],
			"translation":[
				1.4152559041976929,
				0.48619088530540466,
				0.5091500878334045
			]
		},
		{
			"mesh":6,
			"name":"Obj_Desk_1-3",
			"translation":[
				1.1962116956710815,
				0.018212229013442993,
				0.3305158019065857
			]
		},
		{
			"mesh":7,
			"name":"Obj_Desk_1-3.001",
			"rotation":[
				0,
				-1,
				0,
				7.549790126404332e-08
			],
			"translation":[
				-1.3757292032241821,
				0.018212229013442993,
				-0.27720215916633606
			]
		},
		{
			"mesh":8,
			"name":"Obj_Desk_1-2.001",
			"rotation":[
				0,
				-1,
				0,
				7.549790126404332e-08
			],
			"translation":[
				-0.0910586565732956,
				0.018212229013442993,
				-0.2772022783756256
			]
		},
		{
			"mesh":9,
			"name":"Obj_Desk_1-1.001",
			"rotation":[
				0,
				-1,
				0,
				7.549790126404332e-08
			],
			"translation":[
				1.1928439140319824,
				0.018212229013442993,
				-0.27720239758491516
			]
		},
		{
			"mesh":10,
			"name":"Obj_Chair_1-3.001",
			"translation":[
				-1.5947734117507935,
				0.48619088530540466,
				-0.4558364450931549
			]
		},
		{
			"mesh":11,
			"name":"Obj_Chair_1-2.001",
			"translation":[
				-0.310102641582489,
				0.48619088530540466,
				-0.45583656430244446
			]
		},
		{
			"mesh":12,
			"name":"Obj_Chair_1-1.001",
			"translation":[
				0.9737998843193054,
				0.48619088530540466,
				-0.455836683511734
			]
		},
		{
			"mesh":13,
			"name":"Obj_Desk_1-1.002",
			"rotation":[
				0,
				0.7071068286895752,
				0,
				0.7071068286895752
			],
			"translation":[
				2.142376661300659,
				0.018212243914604187,
				0.03415676951408386
			]
		},
		{
			"mesh":14,
			"name":"Obj_Chair_1-1.002",
			"rotation":[
				0,
				-0.7071067094802856,
				0,
				0.7071068286895752
			],
			"translation":[
				2.3210108280181885,
				0.4861908555030823,
				-0.18488720059394836
			]
		}
	],
	"materials":[
		{
			"doubleSided":true,
			"name":"White.001",
			"pbrMetallicRoughness":{
				"baseColorFactor":[
					1,
					1,
					1,
					1
				],
				"metallicFactor":0,
				"roughnessFactor":0.5
			}
		},
		{
			"doubleSided":true,
			"name":"White.003",
			"pbrMetallicRoughness":{
				"baseColorFactor":[
					1,
					1,
					1,
					1
				],
				"metallicFactor":0,
				"roughnessFactor":0.5
			}
		},
		{
			"doubleSided":true,
			"name":"White.004",
			"pbrMetallicRoughness":{
				"baseColorFactor":[
					1,
					1,
					1,
					1
				],
				"metallicFactor":0,
				"roughnessFactor":0.5
			}
		},
		{
			"doubleSided":true,
			"name":"White.005",
			"pbrMetallicRoughness":{
				"baseColorFactor":[
					1,
					1,
					1,
					1
				],
				"metallicFactor":0,
				"roughnessFactor":0.5
			}
		},
		{
			"doubleSided":true,
			"name":"White.006",
			"pbrMetallicRoughness":{
				"baseColorFactor":[
					1,
					1,
					1,
					1
				],
				"metallicFactor":0,
				"roughnessFactor":0.5
			}
		},
		{
			"doubleSided":true,
			"name":"White.007",
			"pbrMetallicRoughness":{
				"baseColorFactor":[
					1,
					1,
					1,
					1
				],
				"metallicFactor":0,
				"roughnessFactor":0.5
			}
		},
		{
			"doubleSided":true,
			"name":"White.008",
			"pbrMetallicRoughness":{
				"baseColorFactor":[
					1,
					1,
					1,
					1
				],
				"metallicFactor":0,
				"roughnessFactor":0.5
			}
		}
	],
	"meshes":[
		{
			"name":"Plane",
			"primitives":[
				{
					"attributes":{
						"POSITION":0,
						"NORMAL":1,
						"TEXCOORD_0":2
					},
					"indices":3
				}
			]
		},
		{
			"name":"Cube.003",
			"primitives":[
				{
					"attributes":{
						"POSITION":4,
						"NORMAL":5
					},
					"indices":6,
					"material":0
				}
			]
		},
		{
			"name":"Cube.002",
			"primitives":[
				{
					"attributes":{
						"POSITION":7,
						"NORMAL":8
					},
					"indices":9,
					"material":0
				}
			]
		},
		{
			"name":"Cube.005",
			"primitives":[
				{
					"attributes":{
						"POSITION":10,
						"NORMAL":11
					},
					"indices":6,
					"material":1
				}
			]
		},
		{
			"name":"Cube.006",
			"primitives":[
				{
					"attributes":{
						"POSITION":12,
						"NORMAL":13
					},
					"indices":9,
					"material":1
				}
			]
		},
		{
			"name":"Cube.008",
			"primitives":[
				{
					"attributes":{
						"POSITION":14,
						"NORMAL":15
					},
					"indices":6,
					"material":2
				}
			]
		},
		{
			"name":"Cube.007",
			"primitives":[
				{
					"attributes":{
						"POSITION":16,
						"NORMAL":17
					},
					"indices":9,
					"material":2
				}
			]
		},
		{
			"name":"Cube.009",
			"primitives":[
				{
					"attributes":{
						"POSITION":18,
						"NORMAL":19
					},
					"indices":9,
					"material":3
				}
			]
		},
		{
			"name":"Cube.010",
			"primitives":[
				{
					"attributes":{
						"POSITION":20,
						"NORMAL":21
					},
					"indices":9,
					"material":4
				}
			]
		},
		{
			"name":"Cube.011",
			"primitives":[
				{
					"attributes":{
						"POSITION":22,
						"NORMAL":23
					},
					"indices":9,
					"material":5
				}
			]
		},
		{
			"name":"Cube.012",
			"primitives":[
				{
					"attributes":{
						"POSITION":24,
						"NORMAL":25
					},
					"indices":6,
					"material":3
				}
			]
		},
		{
			"name":"Cube.013",
			"primitives":[
				{
					"attributes":{
						"POSITION":26,
						"NORMAL":27
					},
					"indices":6,
					"material":4
				}
			]
		},
		{
			"name":"Cube.014",
			"primitives":[
				{
					"attributes":{
						"POSITION":28,
						"NORMAL":29
					},
					"indices":6,
					"material":5
				}
			]
		},
		{
			"name":"Cube.015",
			"primitives":[
				{
					"attributes":{
						"POSITION":30,
						"NORMAL":31
					},
					"indices":9,
					"material":6
				}
			]
		},
		{
			"name":"Cube.016",
			"primitives":[
				{
					"attributes":{
						"POSITION":32,
						"NORMAL":33
					},
					"indices":6,
					"material":6
				}
			]
		}
	],
	"accessors":[
		{
			"bufferView":0,
			"componentType":5126,
			"count":4,
			"max":[
				1,
				0,
				1
			],
			"min":[
				-1,
				0,
				-1
			],
			"type":"VEC3"
		},
		{
			"bufferView":1,
			"componentType":5126,
			"count":4,
			"type":"VEC3"
		},
		{
			"bufferView":2,
			"componentType":5126,
			"count":4,
			"type":"VEC2"
		},
		{
			"bufferView":3,
			"componentType":5123,
			"count":6,
			"type":"SCALAR"
		},
		{
			"bufferView":4,
			"componentType":5126,
			"count":1184,
			"max":[
				0.3314681947231293,
				0.4754236340522766,
				0.3513573408126831
			],
			"min":[
				-0.3314681947231293,
				-0.4803726077079773,
				-0.3513573408126831
			],
			"type":"VEC3"
		},
		{
			"bufferView":5,
			"componentType":5126,
			"count":1184,
			"type":"VEC3"
		},
		{
			"bufferView":6,
			"componentType":5123,
			"count":2100,
			"type":"SCALAR"
		},
		{
			"bufferView":7,
			"componentType":5126,
			"count":2062,
			"max":[
				0.6399999856948853,
				0.699999988079071,
				0.3695971965789795
			],
			"min":[
				-0.6399999260902405,
				0,
				-0.31075745820999146
			],
			"type":"VEC3"
		},
		{
			"bufferView":8,
			"componentType":5126,
			"count":2062,
			"type":"VEC3"
		},
		{
			"bufferView":9,
			"componentType":5123,
			"count":3216,
			"type":"SCALAR"
		},
		{
			"bufferView":10,
			"componentType":5126,
			"count":1184,
			"max":[
				0.3314681947231293,
				0.4754236340522766,
				0.3513573408126831
			],
			"min":[
				-0.3314681947231293,
				-0.4803726077079773,
				-0.3513573408126831
			],
			"type":"VEC3"
		},
		{
			"bufferView":11,
			"componentType":5126,
			"count":1184,
			"type":"VEC3"
		},
		{
			"bufferView":12,
			"componentType":5126,
			"count":2062,
			"max":[
				0.6399999856948853,
				0.699999988079071,
				0.3695971965789795
			],
			"min":[
				-0.6399999260902405,
				0,
				-0.31075745820999146
			],
			"type":"VEC3"
		},
		{
			"bufferView":13,
			"componentType":5126,
			"count":2062,
			"type":"VEC3"
		},
		{
			"bufferView":14,
			"componentType":5126,
			"count":1184,
			"max":[
				0.3314681947231293,
				0.4754236340522766,
				0.3513573408126831
			],
			"min":[
				-0.3314681947231293,
				-0.4803726077079773,
				-0.3513573408126831
			],
			"type":"VEC3"
		},
		{
			"bufferView":15,
			"componentType":5126,
			"count":1184,
			"type":"VEC3"
		},
		{
			"bufferView":16,
			"componentType":5126,
			"count":2062,
			"max":[
				0.6399999856948853,
				0.699999988079071,
				0.3695971965789795
			],
			"min":[
				-0.6399999260902405,
				0,
				-0.31075745820999146
			],
			"type":"VEC3"
		},
		{
			"bufferView":17,
			"componentType":5126,
			"count":2062,
			"type":"VEC3"
		},
		{
			"bufferView":18,
			"componentType":5126,
			"count":2062,
			"max":[
				0.6399999856948853,
				0.699999988079071,
				0.3695971965789795
			],
			"min":[
				-0.6399999260902405,
				0,
				-0.31075745820999146
			],
			"type":"VEC3"
		},
		{
			"bufferView":19,
			"componentType":5126,
			"count":2062,
			"type":"VEC3"
		},
		{
			"bufferView":20,
			"componentType":5126,
			"count":2062,
			"max":[
				0.6399999856948853,
				0.699999988079071,
				0.3695971965789795
			],
			"min":[
				-0.6399999260902405,
				0,
				-0.31075745820999146
			],
			"type":"VEC3"
		},
		{
			"bufferView":21,
			"componentType":5126,
			"count":2062,
			"type":"VEC3"
		},
		{
			"bufferView":22,
			"componentType":5126,
			"count":2062,
			"max":[
				0.6399999856948853,
				0.699999988079071,
				0.3695971965789795
			],
			"min":[
				-0.6399999260902405,
				0,
				-0.31075745820999146
			],
			"type":"VEC3"
		},
		{
			"bufferView":23,
			"componentType":5126,
			"count":2062,
			"type":"VEC3"
		},
		{
			"bufferView":24,
			"componentType":5126,
			"count":1184,
			"max":[
				0.3314681947231293,
				0.4754236340522766,
				0.3513573408126831
			],
			"min":[
				-0.3314681947231293,
				-0.4803726077079773,
				-0.3513573408126831
			],
			"type":"VEC3"
		},
		{
			"bufferView":25,
			"componentType":5126,
			"count":1184,
			"type":"VEC3"
		},
		{
			"bufferView":26,
			"componentType":5126,
			"count":1184,
			"max":[
				0.3314681947231293,
				0.4754236340522766,
				0.3513573408126831
			],
			"min":[
				-0.3314681947231293,
				-0.4803726077079773,
				-0.3513573408126831
			],
			"type":"VEC3"
		},
		{
			"bufferView":27,
			"componentType":5126,
			"count":1184,
			"type":"VEC3"
		},
		{
			"bufferView":28,
			"componentType":5126,
			"count":1184,
			"max":[
				0.3314681947231293,
				0.4754236340522766,
				0.3513573408126831
			],
			"min":[
				-0.3314681947231293,
				-0.4803726077079773,
				-0.3513573408126831
			],
			"type":"VEC3"
		},
		{
			"bufferView":29,
			"componentType":5126,
			"count":1184,
			"type":"VEC3"
		},
		{
			"bufferView":30,
			"componentType":5126,
			"count":2062,
			"max":[
				0.6399999856948853,
				0.699999988079071,
				0.3695971965789795
			],
			"min":[
				-0.6399999260902405,
				0,
				-0.31075745820999146
			],
			"type":"VEC3"
		},
		{
			"bufferView":31,
			"componentType":5126,
			"count":2062,
			"type":"VEC3"
		},
		{
			"bufferView":32,
			"componentType":5126,
			"count":1184,
			"max":[
				0.3314681947231293,
				0.4754236340522766,
				0.3513573408126831
			],
			"min":[
				-0.3314681947231293,
				-0.4803726077079773,
				-0.3513573408126831
			],
			"type":"VEC3"
		},
		{
			"bufferView":33,
			"componentType":5126,
			"count":1184,
			"type":"VEC3"
		}
	],
	"bufferViews":[
		{
			"buffer":0,
			"byteLength":48,
			"byteOffset":0,
			"target":34962
		},
		{
			"buffer":0,
			"byteLength":48,
			"byteOffset":48,
			"target":34962
		},
		{
			"buffer":0,
			"byteLength":32,
			"byteOffset":96,
			"target":34962
		},
		{
			"buffer":0,
			"byteLength":12,
			"byteOffset":128,
			"target":34963
		},
		{
			"buffer":0,
			"byteLength":14208,
			"byteOffset":140,
			"target":34962
		},
		{
			"buffer":0,
			"byteLength":14208,
			"byteOffset":14348,
			"target":34962
		},
		{
			"buffer":0,
			"byteLength":4200,
			"byteOffset":28556,
			"target":34963
		},
		{
			"buffer":0,
			"byteLength":24744,
			"byteOffset":32756,
			"target":34962
		},
		{
			"buffer":0,
			"byteLength":24744,
			"byteOffset":57500,
			"target":34962
		},
		{
			"buffer":0,
			"byteLength":6432,
			"byteOffset":82244,
			"target":34963
		},
		{
			"buffer":0,
			"byteLength":14208,
			"byteOffset":88676,
			"target":34962
		},
		{
			"buffer":0,
			"byteLength":14208,
			"byteOffset":102884,
			"target":34962
		},
		{
			"buffer":0,
			"byteLength":24744,
			"byteOffset":117092,
			"target":34962
		},
		{
			"buffer":0,
			"byteLength":24744,
			"byteOffset":141836,
			"target":34962
		},
		{
			"buffer":0,
			"byteLength":14208,
			"byteOffset":166580,
			"target":34962
		},
		{
			"buffer":0,
			"byteLength":14208,
			"byteOffset":180788,
			"target":34962
		},
		{
			"buffer":0,
			"byteLength":24744,
			"byteOffset":194996,
			"target":34962
		},
		{
			"buffer":0,
			"byteLength":24744,
			"byteOffset":219740,
			"target":34962
		},
		{
			"buffer":0,
			"byteLength":24744,
			"byteOffset":244484,
			"target":34962
		},
		{
			"buffer":0,
			"byteLength":24744,
			"byteOffset":269228,
			"target":34962
		},
		{
			"buffer":0,
			"byteLength":24744,
			"byteOffset":293972,
			"target":34962
		},
		{
			"buffer":0,
			"byteLength":24744,
			"byteOffset":318716,
			"target":34962
		},
		{
			"buffer":0,
			"byteLength":24744,
			"byteOffset":343460,
			"target":34962
		},
		{
			"buffer":0,
			"byteLength":24744,
			"byteOffset":368204,
			"target":34962
		},
		{
			"buffer":0,
			"byteLength":14208,
			"byteOffset":392948,
			"target":34962
		},
		{
			"buffer":0,
			"byteLength":14208,
			"byteOffset":407156,
			"target":34962
		},
		{
			"buffer":0,
			"byteLength":14208,
			"byteOffset":421364,
			"target":34962
		},
		{
			"buffer":0,
			"byteLength":14208,
			"byteOffset":435572,
			"target":34962
		},
		{
			"buffer":0,
			"byteLength":14208,
			"byteOffset":449780,
			"target":34962
		},
		{
			"buffer":0,
			"byteLength":14208,
			"byteOffset":463988,
			"target":34962
		},
		{
			"buffer":0,
			"byteLength":24744,
			"byteOffset":478196,
			"target":34962
		},
		{
			"buffer":0,
			"byteLength":24744,
			"byteOffset":502940,
			"target":34962
		},
		{
			"buffer":0,
			"byteLength":14208,
			"byteOffset":527684,
			"target":34962
		},
		{
			"buffer":0,
			"byteLength":14208,
			"byteOffset":541892,
			"target":34962
		}
	],
	"buffers":[
		{
			"byteLength":556100,
			"uri":"office.bin"
		}
	]
}
